<?xml version="1.0" encoding="UTF-8"?>
<svg width="446px" height="1037px" viewBox="0 0 446 1037" version="1.1" xmlns="http://www.w3.org/2000/svg" xmlns:xlink="http://www.w3.org/1999/xlink">
    <title>Menu text</title>
    <g id="Page-1" stroke="none" stroke-width="1" fill="none" fill-rule="evenodd">
        <g id="Menu-text" transform="translate(2.600000, 2.156000)" fill="#FFFFFF" fill-rule="nonzero" stroke="#CBB7A4" stroke-width="4">
            <g id="Menu" transform="translate(220.499000, 516.260000) rotate(-90.000000) translate(-220.499000, -516.260000) translate(-295.761000, 295.761000)">
                <g id="MENU" transform="translate(0.000000, -0.000000)">
                    <polygon id="Path" points="95.166 -7.10542736e-15 0 -7.10542736e-15 0 435.4 59.712 435.4 59.712 127.51 110.716 435.4 175.404 435.4 222.676 123.156 222.676 435.4 287.364 435.4 287.364 -7.10542736e-15 192.198 -7.10542736e-15 145.548 309.134"></polygon>
                    <polygon id="Path" points="405.544 62.2 523.724 62.2 523.724 7.10542736e-15 337.124 7.10542736e-15 337.124 435.4 523.724 435.4 523.724 373.2 405.544 373.2 405.544 245.69 499.466 245.69 499.466 183.49 405.544 183.49"></polygon>
                    <polygon id="Path" points="712.19 435.4 782.476 435.4 782.476 -7.10542736e-15 721.52 -7.10542736e-15 721.52 260.618 651.234 -7.10542736e-15 565.398 -7.10542736e-15 565.398 435.4 626.976 435.4 626.976 120.046"></polygon>
                    <path d="M828.504,0 L828.504,331.526 C828.504,401.19 863.336,440.998 930.512,440.998 C997.688,440.998 1032.52,401.19 1032.52,331.526 L1032.52,0 L967.832,0 L967.832,335.88 C967.832,366.98 954.148,378.176 932.378,378.176 C910.608,378.176 896.924,366.98 896.924,335.88 L896.924,0 L828.504,0 Z" id="Path"></path>
                </g>
            </g>
        </g>
    </g>
</svg>